<svg width="190" height="190" viewBox="0 0 190 190" fill="none" xmlns="http://www.w3.org/2000/svg">
<path fill-rule="evenodd" clip-rule="evenodd" d="M95 0L185.35 65.6434L150.84 171.857H39.1604L4.64963 65.6434L95 0Z" fill="#FF6565"/>
<path d="M41.3752 134V124.816H42.5372V133.006H46.5552V134H41.3752ZM50.5538 134.168C50.0031 134.168 49.4851 134.028 48.9998 133.748C48.5238 133.468 48.1364 133.062 47.8378 132.53C47.5484 131.998 47.4038 131.359 47.4038 130.612C47.4038 129.847 47.5484 129.198 47.8378 128.666C48.1364 128.134 48.5238 127.728 48.9998 127.448C49.4851 127.168 50.0031 127.028 50.5538 127.028C51.1138 127.028 51.6318 127.168 52.1078 127.448C52.5838 127.728 52.9664 128.134 53.2558 128.666C53.5544 129.198 53.7038 129.847 53.7038 130.612C53.7038 131.359 53.5544 131.998 53.2558 132.53C52.9664 133.062 52.5838 133.468 52.1078 133.748C51.6318 134.028 51.1138 134.168 50.5538 134.168ZM50.5538 133.216C51.1418 133.216 51.6131 132.978 51.9678 132.502C52.3318 132.017 52.5138 131.387 52.5138 130.612C52.5138 129.828 52.3318 129.193 51.9678 128.708C51.6131 128.223 51.1418 127.98 50.5538 127.98C49.9751 127.98 49.5038 128.223 49.1398 128.708C48.7758 129.193 48.5938 129.828 48.5938 130.612C48.5938 131.387 48.7758 132.017 49.1398 132.502C49.5038 132.978 49.9751 133.216 50.5538 133.216ZM55.4957 134V127.196H56.4477L56.5457 128.428H56.5877C56.821 127.999 57.1057 127.658 57.4417 127.406C57.7777 127.154 58.137 127.028 58.5197 127.028C58.7903 127.028 59.033 127.075 59.2477 127.168L59.0237 128.176C58.9117 128.139 58.809 128.111 58.7157 128.092C58.6223 128.073 58.5057 128.064 58.3657 128.064C58.0763 128.064 57.773 128.181 57.4557 128.414C57.1477 128.647 56.877 129.053 56.6437 129.632V134H55.4957ZM62.9705 134.168C62.3638 134.168 61.8131 134.028 61.3185 133.748C60.8238 133.459 60.4318 133.048 60.1425 132.516C59.8531 131.984 59.7085 131.349 59.7085 130.612C59.7085 129.865 59.8531 129.226 60.1425 128.694C60.4411 128.162 60.8238 127.751 61.2905 127.462C61.7571 127.173 62.2471 127.028 62.7605 127.028C63.6285 127.028 64.2958 127.317 64.7625 127.896C65.2385 128.475 65.4765 129.249 65.4765 130.22C65.4765 130.341 65.4718 130.463 65.4625 130.584C65.4625 130.696 65.4531 130.794 65.4345 130.878H60.8425C60.8891 131.597 61.1131 132.171 61.5145 132.6C61.9251 133.029 62.4571 133.244 63.1105 133.244C63.4371 133.244 63.7358 133.197 64.0065 133.104C64.2865 133.001 64.5525 132.871 64.8045 132.712L65.2105 133.468C64.9211 133.655 64.5898 133.818 64.2165 133.958C63.8525 134.098 63.4371 134.168 62.9705 134.168ZM60.8285 130.052H64.4685C64.4685 129.361 64.3191 128.839 64.0205 128.484C63.7311 128.12 63.3205 127.938 62.7885 127.938C62.3125 127.938 61.8831 128.125 61.5005 128.498C61.1271 128.862 60.9031 129.38 60.8285 130.052ZM67.1578 134V127.196H68.1098L68.2078 128.176H68.2498C68.5484 127.849 68.8751 127.579 69.2298 127.364C69.5844 127.14 69.9624 127.028 70.3638 127.028C70.8864 127.028 71.2924 127.145 71.5818 127.378C71.8804 127.602 72.0998 127.919 72.2398 128.33C72.5944 127.947 72.9538 127.635 73.3178 127.392C73.6818 127.149 74.0691 127.028 74.4798 127.028C75.1798 127.028 75.6978 127.257 76.0338 127.714C76.3791 128.162 76.5518 128.82 76.5518 129.688V134H75.4038V129.842C75.4038 129.207 75.3011 128.745 75.0958 128.456C74.8904 128.167 74.5731 128.022 74.1438 128.022C73.6398 128.022 73.0704 128.372 72.4358 129.072V134H71.2878V129.842C71.2878 129.207 71.1851 128.745 70.9798 128.456C70.7744 128.167 70.4524 128.022 70.0138 128.022C69.5098 128.022 68.9404 128.372 68.3058 129.072V134H67.1578ZM81.5679 134V127.196H82.7159V134H81.5679ZM82.1559 125.796C81.9319 125.796 81.7453 125.731 81.5959 125.6C81.4559 125.46 81.3859 125.273 81.3859 125.04C81.3859 124.816 81.4559 124.634 81.5959 124.494C81.7453 124.354 81.9319 124.284 82.1559 124.284C82.3799 124.284 82.5619 124.354 82.7019 124.494C82.8513 124.634 82.9259 124.816 82.9259 125.04C82.9259 125.273 82.8513 125.46 82.7019 125.6C82.5619 125.731 82.3799 125.796 82.1559 125.796ZM85.0132 136.87V127.196H85.9652L86.0632 127.98H86.1052C86.4132 127.719 86.7492 127.495 87.1132 127.308C87.4866 127.121 87.8739 127.028 88.2752 127.028C89.1526 127.028 89.8199 127.345 90.2772 127.98C90.7346 128.605 90.9632 129.445 90.9632 130.5C90.9632 131.265 90.8232 131.923 90.5432 132.474C90.2726 133.025 89.9132 133.445 89.4652 133.734C89.0266 134.023 88.5459 134.168 88.0232 134.168C87.7059 134.168 87.3886 134.098 87.0712 133.958C86.7632 133.818 86.4506 133.627 86.1332 133.384L86.1612 134.574V136.87H85.0132ZM87.8272 133.202C88.3872 133.202 88.8492 132.964 89.2132 132.488C89.5866 132.003 89.7732 131.34 89.7732 130.5C89.7732 129.753 89.6332 129.151 89.3532 128.694C89.0826 128.227 88.6252 127.994 87.9812 127.994C87.6919 127.994 87.3979 128.073 87.0992 128.232C86.8099 128.391 86.4972 128.619 86.1612 128.918V132.488C86.4692 132.749 86.7679 132.936 87.0572 133.048C87.3466 133.151 87.6032 133.202 87.8272 133.202ZM94.5569 134.168C94.0715 134.168 93.6095 134.079 93.1709 133.902C92.7322 133.715 92.3495 133.491 92.0229 133.23L92.5969 132.46C92.8955 132.693 93.2035 132.889 93.5209 133.048C93.8382 133.197 94.1975 133.272 94.5989 133.272C95.0469 133.272 95.3829 133.169 95.6069 132.964C95.8309 132.749 95.9429 132.497 95.9429 132.208C95.9429 131.975 95.8635 131.779 95.7049 131.62C95.5555 131.461 95.3595 131.331 95.1169 131.228C94.8835 131.116 94.6409 131.013 94.3889 130.92C94.0715 130.799 93.7589 130.663 93.4509 130.514C93.1429 130.355 92.8909 130.155 92.6949 129.912C92.4989 129.66 92.4009 129.343 92.4009 128.96C92.4009 128.409 92.6062 127.952 93.0169 127.588C93.4369 127.215 94.0155 127.028 94.7529 127.028C95.1729 127.028 95.5649 127.103 95.9289 127.252C96.2929 127.401 96.6055 127.583 96.8669 127.798L96.3069 128.526C96.0735 128.349 95.8309 128.204 95.5789 128.092C95.3269 127.98 95.0515 127.924 94.7529 127.924C94.3235 127.924 94.0062 128.022 93.8009 128.218C93.6049 128.414 93.5069 128.643 93.5069 128.904C93.5069 129.119 93.5769 129.296 93.7169 129.436C93.8569 129.567 94.0389 129.683 94.2629 129.786C94.4869 129.879 94.7249 129.977 94.9769 130.08C95.3035 130.201 95.6255 130.341 95.9429 130.5C96.2602 130.649 96.5215 130.855 96.7269 131.116C96.9415 131.368 97.0489 131.709 97.0489 132.138C97.0489 132.502 96.9509 132.838 96.7549 133.146C96.5682 133.454 96.2882 133.701 95.9149 133.888C95.5509 134.075 95.0982 134.168 94.5569 134.168ZM100.632 134.168C99.9134 134.168 99.3861 133.944 99.0501 133.496C98.7141 133.039 98.5461 132.376 98.5461 131.508V127.196H99.7081V131.354C99.7081 131.989 99.8061 132.451 100.002 132.74C100.207 133.029 100.534 133.174 100.982 133.174C101.337 133.174 101.649 133.085 101.92 132.908C102.2 132.721 102.499 132.427 102.816 132.026V127.196H103.964V134H103.012L102.914 132.936H102.872C102.555 133.309 102.219 133.608 101.864 133.832C101.509 134.056 101.099 134.168 100.632 134.168ZM106.259 134V127.196H107.211L107.309 128.176H107.351C107.65 127.849 107.977 127.579 108.331 127.364C108.686 127.14 109.064 127.028 109.465 127.028C109.988 127.028 110.394 127.145 110.683 127.378C110.982 127.602 111.201 127.919 111.341 128.33C111.696 127.947 112.055 127.635 112.419 127.392C112.783 127.149 113.171 127.028 113.581 127.028C114.281 127.028 114.799 127.257 115.135 127.714C115.481 128.162 115.653 128.82 115.653 129.688V134H114.505V129.842C114.505 129.207 114.403 128.745 114.197 128.456C113.992 128.167 113.675 128.022 113.245 128.022C112.741 128.022 112.172 128.372 111.537 129.072V134H110.389V129.842C110.389 129.207 110.287 128.745 110.081 128.456C109.876 128.167 109.554 128.022 109.115 128.022C108.611 128.022 108.042 128.372 107.407 129.072V134H106.259ZM122.993 134.168C122.144 134.168 121.463 133.86 120.949 133.244C120.436 132.619 120.179 131.741 120.179 130.612C120.179 129.875 120.315 129.24 120.585 128.708C120.865 128.167 121.229 127.751 121.677 127.462C122.135 127.173 122.62 127.028 123.133 127.028C123.525 127.028 123.866 127.098 124.155 127.238C124.445 127.378 124.739 127.569 125.037 127.812L124.981 126.65V124.032H126.143V134H125.191L125.093 133.202H125.051C124.79 133.463 124.482 133.692 124.127 133.888C123.773 134.075 123.395 134.168 122.993 134.168ZM123.245 133.202C123.843 133.202 124.421 132.889 124.981 132.264V128.708C124.692 128.447 124.412 128.265 124.141 128.162C123.88 128.05 123.609 127.994 123.329 127.994C122.965 127.994 122.634 128.106 122.335 128.33C122.046 128.545 121.813 128.848 121.635 129.24C121.458 129.623 121.369 130.075 121.369 130.598C121.369 131.41 121.533 132.049 121.859 132.516C122.186 132.973 122.648 133.202 123.245 133.202ZM131.081 134.168C130.53 134.168 130.012 134.028 129.527 133.748C129.051 133.468 128.664 133.062 128.365 132.53C128.076 131.998 127.931 131.359 127.931 130.612C127.931 129.847 128.076 129.198 128.365 128.666C128.664 128.134 129.051 127.728 129.527 127.448C130.012 127.168 130.53 127.028 131.081 127.028C131.641 127.028 132.159 127.168 132.635 127.448C133.111 127.728 133.494 128.134 133.783 128.666C134.082 129.198 134.231 129.847 134.231 130.612C134.231 131.359 134.082 131.998 133.783 132.53C133.494 133.062 133.111 133.468 132.635 133.748C132.159 134.028 131.641 134.168 131.081 134.168ZM131.081 133.216C131.669 133.216 132.14 132.978 132.495 132.502C132.859 132.017 133.041 131.387 133.041 130.612C133.041 129.828 132.859 129.193 132.495 128.708C132.14 128.223 131.669 127.98 131.081 127.98C130.502 127.98 130.031 128.223 129.667 128.708C129.303 129.193 129.121 129.828 129.121 130.612C129.121 131.387 129.303 132.017 129.667 132.502C130.031 132.978 130.502 133.216 131.081 133.216ZM137.241 134.168C136.812 134.168 136.499 134.037 136.303 133.776C136.116 133.505 136.023 133.123 136.023 132.628V124.032H137.171V132.712C137.171 132.889 137.204 133.02 137.269 133.104C137.334 133.179 137.409 133.216 137.493 133.216C137.53 133.216 137.563 133.216 137.591 133.216C137.628 133.207 137.68 133.197 137.745 133.188L137.899 134.056C137.824 134.093 137.736 134.121 137.633 134.14C137.53 134.159 137.4 134.168 137.241 134.168ZM142.237 134.168C141.687 134.168 141.169 134.028 140.683 133.748C140.207 133.468 139.82 133.062 139.521 132.53C139.232 131.998 139.087 131.359 139.087 130.612C139.087 129.847 139.232 129.198 139.521 128.666C139.82 128.134 140.207 127.728 140.683 127.448C141.169 127.168 141.687 127.028 142.237 127.028C142.797 127.028 143.315 127.168 143.791 127.448C144.267 127.728 144.65 128.134 144.939 128.666C145.238 129.198 145.387 129.847 145.387 130.612C145.387 131.359 145.238 131.998 144.939 132.53C144.65 133.062 144.267 133.468 143.791 133.748C143.315 134.028 142.797 134.168 142.237 134.168ZM142.237 133.216C142.825 133.216 143.297 132.978 143.651 132.502C144.015 132.017 144.197 131.387 144.197 130.612C144.197 129.828 144.015 129.193 143.651 128.708C143.297 128.223 142.825 127.98 142.237 127.98C141.659 127.98 141.187 128.223 140.823 128.708C140.459 129.193 140.277 129.828 140.277 130.612C140.277 131.387 140.459 132.017 140.823 132.502C141.187 132.978 141.659 133.216 142.237 133.216ZM147.179 134V127.196H148.131L148.229 128.428H148.271C148.505 127.999 148.789 127.658 149.125 127.406C149.461 127.154 149.821 127.028 150.203 127.028C150.474 127.028 150.717 127.075 150.931 127.168L150.707 128.176C150.595 128.139 150.493 128.111 150.399 128.092C150.306 128.073 150.189 128.064 150.049 128.064C149.76 128.064 149.457 128.181 149.139 128.414C148.831 128.647 148.561 129.053 148.327 129.632V134H147.179Z" fill="white"/>
<path d="M61.1366 94.676V86.212H53.0406V81.428H61.1366V72.964H66.1046V81.428H74.2006V86.212H66.1046V94.676H61.1366ZM77.4813 99V95.136C79.9653 92.7747 82.158 90.6433 84.0593 88.742C85.9913 86.81 87.494 85.0467 88.5673 83.452C89.6406 81.8267 90.1773 80.324 90.1773 78.944C90.1773 77.5027 89.794 76.414 89.0273 75.678C88.2913 74.9113 87.2946 74.528 86.0373 74.528C84.9946 74.528 84.044 74.8347 83.1853 75.448C82.3573 76.0307 81.5753 76.7207 80.8393 77.518L77.1593 73.884C78.6006 72.3507 80.0726 71.2007 81.5753 70.434C83.078 69.6367 84.872 69.238 86.9573 69.238C88.8893 69.238 90.576 69.6213 92.0173 70.388C93.4586 71.1547 94.578 72.2433 95.3753 73.654C96.2033 75.034 96.6173 76.6593 96.6173 78.53C96.6173 80.1553 96.1573 81.8267 95.2373 83.544C94.348 85.2307 93.198 86.9327 91.7873 88.65C90.3766 90.3367 88.874 92.008 87.2793 93.664C88.0153 93.572 88.8433 93.4953 89.7633 93.434C90.6833 93.342 91.4806 93.296 92.1553 93.296H98.0433V99H77.4813ZM108.73 87.5C106.583 87.5 104.805 86.6567 103.394 84.97C101.983 83.2833 101.278 80.9373 101.278 77.932C101.278 74.9267 101.983 72.596 103.394 70.94C104.805 69.284 106.583 68.456 108.73 68.456C110.907 68.456 112.701 69.284 114.112 70.94C115.523 72.596 116.228 74.9267 116.228 77.932C116.228 80.9373 115.523 83.2833 114.112 84.97C112.701 86.6567 110.907 87.5 108.73 87.5ZM108.73 83.728C109.497 83.728 110.141 83.2987 110.662 82.44C111.214 81.5813 111.49 80.0787 111.49 77.932C111.49 75.7853 111.214 74.298 110.662 73.47C110.141 72.642 109.497 72.228 108.73 72.228C107.963 72.228 107.304 72.642 106.752 73.47C106.231 74.298 105.97 75.7853 105.97 77.932C105.97 80.0787 106.231 81.5813 106.752 82.44C107.304 83.2987 107.963 83.728 108.73 83.728ZM109.742 99.552L125.934 68.456H129.844L113.652 99.552H109.742ZM130.856 99.552C128.709 99.552 126.931 98.7087 125.52 97.022C124.109 95.3353 123.404 92.9893 123.404 89.984C123.404 86.9787 124.109 84.648 125.52 82.992C126.931 81.336 128.709 80.508 130.856 80.508C133.033 80.508 134.827 81.336 136.238 82.992C137.649 84.648 138.354 86.9787 138.354 89.984C138.354 92.9893 137.649 95.3353 136.238 97.022C134.827 98.7087 133.033 99.552 130.856 99.552ZM130.856 95.78C131.623 95.78 132.267 95.3507 132.788 94.492C133.34 93.6333 133.616 92.1307 133.616 89.984C133.616 87.8373 133.34 86.35 132.788 85.522C132.267 84.694 131.623 84.28 130.856 84.28C130.089 84.28 129.43 84.694 128.878 85.522C128.357 86.35 128.096 87.8373 128.096 89.984C128.096 92.1307 128.357 93.6333 128.878 94.492C129.43 95.3507 130.089 95.78 130.856 95.78Z" fill="white"/>
</svg>
